# xmcd
#
# Track frame offsets:
#	150
#	21965
#	48987
#	67030
#	85725
#	104615
#	140065
#	158135
#	179237
#	200135
#
# Disc length: 2999 seconds
#
# Revision: 18
# Processed by: cddbd v1.5.2PL0 Copyright (c) Steve Scherf et al.
# Submitted via: Jack! The Knife 18 Bulletproof
#
DISCID=980bb50a
DTITLE=Judas Priest - Ram It Down
DYEAR=1988
DGENRE=Metal
TTITLE0=Ram It Down
TTITLE1=Heavy Metal
TTITLE2=Love Zone
TTITLE3=Come And Get It
TTITLE4=Hard As Iron
TTITLE5=Blood Red Skies
TTITLE6=I'm A Rocker
TTITLE7=Johnny B. Goode
TTITLE8=Love You To Death
TTITLE9=Monsters Of Rock
EXTD=Tom Allom
EXTT0=Tipton, Halford, Downing
EXTT1=Tipton, Halford, Downing
EXTT2=Tipton, Halford, Downing
EXTT3=Tipton, Halford, Downing
EXTT4=Tipton, Halford, Downing
EXTT5=Tipton, Halford, Downing
EXTT6=Tipton, Halford, Downing
EXTT7=Chuck Berry
EXTT8=Tipton, Halford, Downing
EXTT9=Tipton, Halford, Downing
PLAYORDER=
